<svg id="Capa_1" fill="#ce1313" enable-background="new 0 0 512 512" height="512" viewBox="0 0 512 512" width="512" xmlns="http://www.w3.org/2000/svg"><g><path d="m353.717 288.138-150-90c-4.634-2.78-10.405-2.853-15.108-.191-4.702 2.662-7.609 7.649-7.609 13.053v180c0 5.404 2.907 10.391 7.609 13.053 4.694 2.657 10.465 2.595 15.108-.191l150-90c4.518-2.711 7.283-7.593 7.283-12.862s-2.765-10.151-7.283-12.862zm-142.717 76.369v-127.014l105.845 63.507z"/><path d="m497 16h-482c-8.284 0-15 6.716-15 15v450c0 8.284 6.716 15 15 15h482c8.284 0 15-6.716 15-15 0-11.851 0-445.53 0-450 0-8.203-6.717-15-15-15zm-196 90 80-60h70.7l-80.667 60zm-120 0 80-60h70l-80 60zm-120.7 0 80.667-60h70.033l-80 60zm421.7-45.148v45.148h-60.7zm-391.3-14.852-60.7 45.148v-45.148zm391.3 420h-452v-330h452z"/></g></svg>